<?xml version="1.0" encoding="UTF-8" standalone="no"?>
<!-- Created with Inkscape (http://www.inkscape.org/) -->

<svg
   width="210mm"
   height="297mm"
   viewBox="0 0 210 297"
   version="1.1"
   id="svg5"
   sodipodi:docname="SAlogo.svg"
   inkscape:version="1.3.2 (091e20e, 2023-11-25, custom)"
   inkscape:export-filename="C:\Users\bartek\Desktop\szkola\cotw\apka-tester\src\SMlogo.png"
   inkscape:export-xdpi="96"
   inkscape:export-ydpi="96"
   xmlns:inkscape="http://www.inkscape.org/namespaces/inkscape"
   xmlns:sodipodi="http://sodipodi.sourceforge.net/DTD/sodipodi-0.dtd"
   xmlns:xlink="http://www.w3.org/1999/xlink"
   xmlns="http://www.w3.org/2000/svg"
   xmlns:svg="http://www.w3.org/2000/svg">
  <sodipodi:namedview
     id="namedview7"
     pagecolor="#ffffff"
     bordercolor="#666666"
     borderopacity="1.0"
     inkscape:pageshadow="2"
     inkscape:pageopacity="0.0"
     inkscape:pagecheckerboard="0"
     inkscape:document-units="mm"
     showgrid="false"
     inkscape:zoom="0.6823934"
     inkscape:cx="-53.488208"
     inkscape:cy="377.34832"
     inkscape:window-width="1920"
     inkscape:window-height="1017"
     inkscape:window-x="-8"
     inkscape:window-y="-8"
     inkscape:window-maximized="1"
     inkscape:current-layer="g8599"
     inkscape:showpageshadow="2"
     inkscape:deskcolor="#d1d1d1" />
  <defs
     id="defs2">
    <linearGradient
       id="linearGradient5"
       inkscape:collect="always">
      <stop
         style="stop-color:#0603d8;stop-opacity:1;"
         offset="0.17787419"
         id="stop5" />
      <stop
         style="stop-color:#6872fd;stop-opacity:0.52750808;"
         offset="1"
         id="stop6" />
    </linearGradient>
    <rect
       x="7.3271518"
       y="663.83995"
       width="791.33239"
       height="193.43681"
       id="rect4" />
    <linearGradient
       id="linearGradient3"
       inkscape:collect="always">
      <stop
         style="stop-color:#0007fc;stop-opacity:1;"
         offset="0.32688171"
         id="stop3" />
      <stop
         style="stop-color:#4248ff;stop-opacity:0.55910546;"
         offset="1"
         id="stop4" />
    </linearGradient>
    <rect
       x="466.73958"
       y="723.18989"
       width="317.26568"
       height="112.10542"
       id="rect11231" />
    <rect
       x="-197.8331"
       y="76.20238"
       width="1175.2752"
       height="789.86698"
       id="rect5893" />
    <marker
       style="overflow:visible"
       id="DiamondMstart"
       refX="0.0"
       refY="0.0"
       orient="auto"
       inkscape:stockid="DiamondMstart"
       inkscape:isstock="true">
      <path
         transform="scale(0.4) translate(6.5,0)"
         style="fill-rule:evenodd;fill:context-stroke;stroke:context-stroke;stroke-width:1.0pt"
         d="M 0,-7.0710768 L -7.0710894,0 L 0,7.0710589 L 7.0710462,0 L 0,-7.0710768 z "
         id="path2830" />
    </marker>
    <marker
       style="overflow:visible"
       id="Legs"
       refX="0.0"
       refY="0.0"
       orient="auto"
       inkscape:stockid="Legs"
       inkscape:isstock="true">
      <g
         transform="scale(-0.7)"
         id="g2948">
        <g
           transform="matrix(0,-1.000000,-1.000000,0,20.70862,21.31391)"
           id="g2942">
          <path
             style="fill:none;fill-opacity:0.75000000;fill-rule:evenodd;stroke:context-stroke;stroke-width:1.0000000pt"
             d="M 21.221250,20.675360 C 14.311099,25.396517 18.766725,27.282204 15.380179,34.118595"
             id="path2938" />
          <path
             style="fill:none;fill-opacity:0.75000000;fill-rule:evenodd;stroke:context-stroke;stroke-width:1.0000000pt"
             d="M 21.398110,20.548120 C 20.037601,28.895644 24.934182,29.318060 25.903151,34.373078"
             id="path2940" />
        </g>
        <path
           style="fill:context-stroke;fill-rule:evenodd;stroke-width:1.0000000pt"
           d="M -14.090070,-6.7318716 L -15.012238,-2.6884886 L -11.049487,-3.9115586 L -14.090070,-6.7318716 z "
           id="path2944" />
        <path
           style="fill:context-stroke;fill-rule:evenodd;stroke-width:1.0000000pt"
           d="M -15.215679,4.5567534 L -13.341552,8.2563664 L -11.074678,4.7835114 L -15.215679,4.5567534 z "
           id="path2946" />
      </g>
    </marker>
    <marker
       style="overflow:visible"
       id="Scissors"
       refX="0.0"
       refY="0.0"
       orient="auto"
       inkscape:stockid="Scissors"
       inkscape:isstock="true">
      <path
         style="fill:context-stroke;"
         d="M 9.0898857,-3.6061018 C 8.1198849,-4.7769976 6.3697607,-4.7358294 5.0623558,-4.2327734 L -3.1500488,-1.1548705 C -5.5383421,-2.4615840 -7.8983361,-2.0874077 -7.8983361,-2.7236578 C -7.8983361,-3.2209742 -7.4416699,-3.1119800 -7.5100293,-4.4068519 C -7.5756648,-5.6501286 -8.8736064,-6.5699315 -10.100428,-6.4884954 C -11.327699,-6.4958500 -12.599867,-5.5553341 -12.610769,-4.2584343 C -12.702194,-2.9520479 -11.603560,-1.7387447 -10.304005,-1.6532027 C -8.7816644,-1.4265411 -6.0857470,-2.3487593 -4.8210600,-0.082342643 C -5.7633447,1.6559151 -7.4350844,1.6607341 -8.9465707,1.5737277 C -10.201445,1.5014928 -11.708664,1.8611256 -12.307219,3.0945882 C -12.885586,4.2766744 -12.318421,5.9591904 -10.990470,6.3210002 C -9.6502788,6.8128279 -7.8098011,6.1912892 -7.4910978,4.6502760 C -7.2454393,3.4624530 -8.0864637,2.9043186 -7.7636052,2.4731223 C -7.5199917,2.1477623 -5.9728246,2.3362771 -3.2164999,1.0982979 L 5.6763468,4.2330688 C 6.8000164,4.5467672 8.1730685,4.5362646 9.1684433,3.4313614 L -0.051640930,-0.053722219 L 9.0898857,-3.6061018 z M -9.2179159,-5.5066058 C -7.9233569,-4.7838060 -8.0290767,-2.8230356 -9.3743431,-2.4433169 C -10.590861,-2.0196559 -12.145370,-3.2022863 -11.757521,-4.5207817 C -11.530373,-5.6026336 -10.104134,-6.0014137 -9.2179159,-5.5066058 z M -9.1616516,2.5107591 C -7.8108215,3.0096239 -8.0402087,5.2951947 -9.4138723,5.6023681 C -10.324932,5.9187072 -11.627422,5.4635705 -11.719569,4.3902287 C -11.897178,3.0851737 -10.363484,1.9060805 -9.1616516,2.5107591 z "
         id="schere" />
    </marker>
    <marker
       style="overflow:visible"
       id="marker3045"
       refX="0.0"
       refY="0.0"
       orient="auto"
       inkscape:stockid="Tail"
       inkscape:isstock="true">
      <g
         transform="scale(-1.2)"
         id="g3043">
        <path
           style="fill:none;fill-rule:evenodd;stroke:context-stroke;stroke-width:0.8;stroke-linecap:round"
           d="M -3.8048674,-3.9585227 L 0.54352094,0"
           id="path3031" />
        <path
           style="fill:none;fill-rule:evenodd;stroke:context-stroke;stroke-width:0.8;stroke-linecap:round"
           d="M -1.2866832,-3.9585227 L 3.0617053,0"
           id="path3033" />
        <path
           style="fill:none;fill-rule:evenodd;stroke:context-stroke;stroke-width:0.8;stroke-linecap:round"
           d="M 1.3053582,-3.9585227 L 5.6537466,0"
           id="path3035" />
        <path
           style="fill:none;fill-rule:evenodd;stroke:context-stroke;stroke-width:0.8;stroke-linecap:round"
           d="M -3.8048674,4.1775838 L 0.54352094,0.21974226"
           id="path3037" />
        <path
           style="fill:none;fill-rule:evenodd;stroke:context-stroke;stroke-width:0.8;stroke-linecap:round"
           d="M -1.2866832,4.1775838 L 3.0617053,0.21974226"
           id="path3039" />
        <path
           style="fill:none;fill-rule:evenodd;stroke:context-stroke;stroke-width:0.8;stroke-linecap:round"
           d="M 1.3053582,4.1775838 L 5.6537466,0.21974226"
           id="path3041" />
      </g>
    </marker>
    <marker
       style="overflow:visible"
       id="Tail"
       refX="0.0"
       refY="0.0"
       orient="auto"
       inkscape:stockid="Tail"
       inkscape:isstock="true">
      <g
         transform="scale(-1.2)"
         id="g2787">
        <path
           style="fill:none;fill-rule:evenodd;stroke:context-stroke;stroke-width:0.8;stroke-linecap:round"
           d="M -3.8048674,-3.9585227 L 0.54352094,0"
           id="path2775" />
        <path
           style="fill:none;fill-rule:evenodd;stroke:context-stroke;stroke-width:0.8;stroke-linecap:round"
           d="M -1.2866832,-3.9585227 L 3.0617053,0"
           id="path2777" />
        <path
           style="fill:none;fill-rule:evenodd;stroke:context-stroke;stroke-width:0.8;stroke-linecap:round"
           d="M 1.3053582,-3.9585227 L 5.6537466,0"
           id="path2779" />
        <path
           style="fill:none;fill-rule:evenodd;stroke:context-stroke;stroke-width:0.8;stroke-linecap:round"
           d="M -3.8048674,4.1775838 L 0.54352094,0.21974226"
           id="path2781" />
        <path
           style="fill:none;fill-rule:evenodd;stroke:context-stroke;stroke-width:0.8;stroke-linecap:round"
           d="M -1.2866832,4.1775838 L 3.0617053,0.21974226"
           id="path2783" />
        <path
           style="fill:none;fill-rule:evenodd;stroke:context-stroke;stroke-width:0.8;stroke-linecap:round"
           d="M 1.3053582,4.1775838 L 5.6537466,0.21974226"
           id="path2785" />
      </g>
    </marker>
    <inkscape:path-effect
       effect="spiro"
       id="path-effect5369"
       is_visible="true"
       lpeversion="1" />
    <rect
       x="218"
       y="284"
       width="472"
       height="61"
       id="rect11002" />
    <linearGradient
       inkscape:collect="always"
       xlink:href="#linearGradient3"
       id="linearGradient4"
       x1="106.07603"
       y1="8.2101002"
       x2="314.1921"
       y2="8.2101002"
       gradientUnits="userSpaceOnUse"
       gradientTransform="translate(0.42885677)" />
    <linearGradient
       inkscape:collect="always"
       xlink:href="#linearGradient5"
       id="linearGradient6"
       x1="11.86979"
       y1="709.92118"
       x2="779.4528"
       y2="709.92118"
       gradientUnits="userSpaceOnUse" />
  </defs>
  <g
     inkscape:label="Warstwa 1"
     inkscape:groupmode="layer"
     id="layer1">
    <g
       id="g8599"
       transform="matrix(0.48422318,0,0,0.48422318,1.3551104,132.73745)">
      <text
         xml:space="preserve"
         transform="scale(0.26458333)"
         id="text5891"
         style="font-style:normal;font-weight:normal;font-size:40px;line-height:1.25;font-family:sans-serif;white-space:pre;shape-inside:url(#rect5893);display:inline;fill:#000000;fill-opacity:1;stroke:none" />
      <g
         id="g6">
        <circle
           style="fill:url(#linearGradient4);fill-opacity:1;stroke:#000000;stroke-width:0.7228072;stroke-linejoin:round;stroke-miterlimit:4;stroke-dasharray:none;stroke-dashoffset:0;stroke-opacity:1"
           id="path6618"
           cx="210.56293"
           cy="8.2101002"
           r="101.11208" />
        <path
           id="path87"
           style="fill:#000000;fill-opacity:1;stroke:#000000;stroke-width:1.70332;stroke-linecap:butt;stroke-linejoin:round;stroke-miterlimit:4;stroke-dasharray:none;stroke-opacity:1"
           d="m 257.56974,-73.073312 c -20.58486,11.431383 -18.21449,16.077601 -20.51562,20.18431 -2.77825,-1.560838 -40.87166,-11.761227 -73.46072,17.869256 6.05939,-0.955172 12.69325,-3.442441 17.5379,-1.158255 -41.54313,26.8941367 -41.3998,37.3202009 -48.97337,50.794265 6.14014,-3.154657 13.1108,-7.8060308 17.20663,-7.2808148 C 137.64384,25.515023 139.32555,51.930392 143.67127,74.453193 245.51444,92.83413 143.72199,74.291454 245.25693,92.839625 242.3318,60.00495 200.66702,35.12577 234.73764,7.3354492 248.63649,21.415912 256.49057,26.04794 266.00877,28.845107 270.53273,44.986862 303.8174,41.828633 293.8038,18.255218 292.25495,15.819215 289.74986,11.470686 287.35137,7.3354492 272.90582,-30.395068 269.13662,-36.047837 264.18791,-40.976647 c -0.93524,-9.538812 -2.73661,-19.942953 -0.33132,-26.141211 -2.14993,0.822306 -6.73716,4.225386 -10.1837,7.458016 -0.58503,-2.285168 3.04974,-7.678715 3.89685,-13.41347 z"
           sodipodi:nodetypes="cccccccccccccccc" />
        <text
           xml:space="preserve"
           transform="matrix(0.54640782,0,0,0.80328341,-5.6295063,-427.60994)"
           id="text4"
           style="font-style:normal;font-weight:normal;font-size:40px;line-height:1.25;font-family:sans-serif;white-space:pre;shape-inside:url(#rect4);display:inline;fill:url(#linearGradient6);stroke:#000000"><tspan
             x="7.328125"
             y="741.692"
             id="tspan2"><tspan
               style="font-weight:bold;font-size:85.3333px;font-family:Verdana;-inkscape-font-specification:'Verdana, Bold'"
               id="tspan1">Stable Assistant</tspan></tspan></text>
      </g>
    </g>
  </g>
</svg>
